<?xml version="1.0" encoding="UTF-8"?>
<svg xmlns="http://www.w3.org/2000/svg" viewBox="0 0 1148.63 819.22">
  <defs>
    <style>
      .cls-1 {
        font-family: AdobeArabic-Regular, 'Adobe Arabic';
        font-size: 36px;
      }

      .cls-2 {
        fill: #fff;
      }

      .cls-2, .cls-3, .cls-4, .cls-5 {
        stroke: #000;
        stroke-miterlimit: 10;
      }

      .cls-3 {
        fill: #d1b982;
      }

      .cls-4, .cls-6 {
        fill: #2f8086;
      }

      .cls-5 {
        fill: #c2a258;
      }

      .cls-6 {
        stroke-width: 0px;
      }
    </style>
  </defs>
  <g id="Background">
    <polygon class="cls-5" points="713.27 54.72 713.27 703.22 2.13 647.99 2.13 54.72 713.27 54.72"/>
    <polygon class="cls-3" points="1148.13 670.57 713.27 703.22 713.27 54.72 1148.13 54.72 1148.13 670.57"/>
    <polygon class="cls-4" points="2.13 647.99 2.13 818.72 1148.13 818.72 1148.13 670.57 713.27 703.22 2.13 647.99"/>
  </g>
  <g id="Hands">
    <path class="cls-2" d="m405.63,703.22s26-259,35.37-266.5,34.63-3.5,44.63-7.5,14-9,23-10,33,2,33,2l12-26s-13-1-19-8-11-15-11-15c0,0-8-10-4-22s23-37,23-37,21-23,30.12-22.21,24.54-18.26,24.88-18.79c5-8,4-13,4-17s0-13-7-13-9,6-11,11-4,5-8.5,10.09-25.5-1.09-25.5-1.09c0,0,13-16,13-26s-1-16-4.92-19-9.08-3-12.08,0-2,6-5,13-3,7-5,13-15,15-15,15c0,0-3-10-5-14s-8-6-8-6-9-1-11,4.87,2,20.13,0,29.13-20,38-28,43-8,3-12,7-4,6-9,15-40,34-45,41-18,25-20,33-17,55-17,55l-75,226-3,9,118,2Z"/>
    <path class="cls-2" d="m564.38,703.22s49.24-234,65.24-240,43-23,62-26.5,44,12.5,53,13.5,14-4,14-4c0,0,4-5,2.78-9.5s-15.78-11.5-22.78-14.5-14-9-26-14-10-7-7-10c1.55-1.55,34-2,34-2,0,0,6,1,14,8,5,4,10,4,16,4s6-7,7-11-12-19-26-23-13-5-21-6-26-3-26-3c0,0,49-5,57-1s20,2,23-1.43,3-9.57,0-14.57-10-8-22-10.12-34-2.88-50-2.88-29-1-29-1c0,0,18-6,26-9s25-3,38-3,12-5,15-9-1-13-6-14-7-4-22-4-35,3-35,3c0,0-55,11-73,25s-19,14-50.5,47.26-37.5,59.74-43.5,70.74-13,70-19,91-66.46,146.89-66.46,146.89l-12.54,28.11,130.76-4Z"/>
  </g>
  <g id="Water">
    <path class="cls-6" d="m226.13,729.13s24.47-43.49,78.83-49.58c54.37-6.1,67.05,3.36,117.79,13.86s41.18-8.04,82.28-13.86,107.1,41.18,107.1,41.18h29"/>
    <text class="cls-1" transform="translate(0 26.37)"><tspan x="0" y="0">Building Bridge -Venice</tspan></text>
  </g>
</svg>